<mxfile host="app.diagrams.net" modified="2023-10-20T06:14:25.014Z" agent="Mozilla/5.0 (Windows NT 10.0; Win64; x64) AppleWebKit/537.36 (KHTML, like Gecko) Chrome/118.0.0.0 Safari/537.36" etag="4NxuFw0yNx7XqTY9g-ON" version="21.6.5" type="github">
  <diagram name="Page-1" id="74e2e168-ea6b-b213-b513-2b3c1d86103e">
    <mxGraphModel dx="1221" dy="737" grid="1" gridSize="10" guides="1" tooltips="1" connect="1" arrows="1" fold="1" page="1" pageScale="1" pageWidth="1100" pageHeight="850" background="none" math="0" shadow="0">
      <root>
        <mxCell id="0" />
        <mxCell id="1" parent="0" />
        <mxCell id="77e6c97f196da883-1" value="潍坊市政务信息化项目管理业务流程图" style="swimlane;html=1;childLayout=stackLayout;startSize=20;rounded=0;shadow=0;labelBackgroundColor=none;strokeWidth=1;fontFamily=Verdana;fontSize=8;align=center;" parent="1" vertex="1">
          <mxGeometry x="80" y="10" width="960" height="1370" as="geometry" />
        </mxCell>
        <mxCell id="L2NxDiEahJrNmPkSyfzn-4" value="申报单位" style="swimlane;html=1;startSize=20;" vertex="1" parent="77e6c97f196da883-1">
          <mxGeometry y="20" width="240" height="1350" as="geometry" />
        </mxCell>
        <mxCell id="L2NxDiEahJrNmPkSyfzn-11" value="" style="edgeStyle=orthogonalEdgeStyle;rounded=0;orthogonalLoop=1;jettySize=auto;html=1;" edge="1" parent="L2NxDiEahJrNmPkSyfzn-4" source="L2NxDiEahJrNmPkSyfzn-9" target="L2NxDiEahJrNmPkSyfzn-10">
          <mxGeometry relative="1" as="geometry" />
        </mxCell>
        <mxCell id="L2NxDiEahJrNmPkSyfzn-9" value="申报单位申报" style="rounded=1;whiteSpace=wrap;html=1;" vertex="1" parent="L2NxDiEahJrNmPkSyfzn-4">
          <mxGeometry x="60" y="70" width="120" height="60" as="geometry" />
        </mxCell>
        <mxCell id="L2NxDiEahJrNmPkSyfzn-13" value="" style="edgeStyle=orthogonalEdgeStyle;rounded=0;orthogonalLoop=1;jettySize=auto;html=1;" edge="1" parent="L2NxDiEahJrNmPkSyfzn-4" source="L2NxDiEahJrNmPkSyfzn-10" target="L2NxDiEahJrNmPkSyfzn-12">
          <mxGeometry relative="1" as="geometry" />
        </mxCell>
        <mxCell id="L2NxDiEahJrNmPkSyfzn-10" value="内部审核" style="rounded=1;whiteSpace=wrap;html=1;" vertex="1" parent="L2NxDiEahJrNmPkSyfzn-4">
          <mxGeometry x="60" y="200" width="120" height="60" as="geometry" />
        </mxCell>
        <mxCell id="L2NxDiEahJrNmPkSyfzn-14" style="edgeStyle=orthogonalEdgeStyle;rounded=0;orthogonalLoop=1;jettySize=auto;html=1;exitX=0;exitY=0.5;exitDx=0;exitDy=0;entryX=0;entryY=0.5;entryDx=0;entryDy=0;" edge="1" parent="L2NxDiEahJrNmPkSyfzn-4" source="L2NxDiEahJrNmPkSyfzn-12" target="L2NxDiEahJrNmPkSyfzn-9">
          <mxGeometry relative="1" as="geometry" />
        </mxCell>
        <mxCell id="L2NxDiEahJrNmPkSyfzn-15" value="驳回" style="edgeLabel;html=1;align=center;verticalAlign=middle;resizable=0;points=[];" vertex="1" connectable="0" parent="L2NxDiEahJrNmPkSyfzn-14">
          <mxGeometry x="-0.1432" y="2" relative="1" as="geometry">
            <mxPoint as="offset" />
          </mxGeometry>
        </mxCell>
        <mxCell id="L2NxDiEahJrNmPkSyfzn-12" value="是否通过" style="rhombus;whiteSpace=wrap;html=1;" vertex="1" parent="L2NxDiEahJrNmPkSyfzn-4">
          <mxGeometry x="75" y="320" width="90" height="60" as="geometry" />
        </mxCell>
        <mxCell id="L2NxDiEahJrNmPkSyfzn-53" value="上传主体责任书" style="rounded=1;whiteSpace=wrap;html=1;" vertex="1" parent="L2NxDiEahJrNmPkSyfzn-4">
          <mxGeometry x="50" y="1050" width="120" height="60" as="geometry" />
        </mxCell>
        <mxCell id="L2NxDiEahJrNmPkSyfzn-6" value="项目管理员" style="swimlane;html=1;startSize=20;" vertex="1" parent="77e6c97f196da883-1">
          <mxGeometry x="240" y="20" width="240" height="1350" as="geometry" />
        </mxCell>
        <mxCell id="L2NxDiEahJrNmPkSyfzn-27" style="edgeStyle=orthogonalEdgeStyle;rounded=0;orthogonalLoop=1;jettySize=auto;html=1;exitX=0.5;exitY=1;exitDx=0;exitDy=0;" edge="1" parent="L2NxDiEahJrNmPkSyfzn-6" source="L2NxDiEahJrNmPkSyfzn-17" target="L2NxDiEahJrNmPkSyfzn-26">
          <mxGeometry relative="1" as="geometry" />
        </mxCell>
        <mxCell id="L2NxDiEahJrNmPkSyfzn-17" value="项目初审" style="rounded=1;whiteSpace=wrap;html=1;" vertex="1" parent="L2NxDiEahJrNmPkSyfzn-6">
          <mxGeometry x="50" y="320" width="120" height="60" as="geometry" />
        </mxCell>
        <mxCell id="L2NxDiEahJrNmPkSyfzn-26" value="是否通过" style="rhombus;whiteSpace=wrap;html=1;" vertex="1" parent="L2NxDiEahJrNmPkSyfzn-6">
          <mxGeometry x="65" y="440" width="90" height="60" as="geometry" />
        </mxCell>
        <mxCell id="L2NxDiEahJrNmPkSyfzn-40" style="edgeStyle=orthogonalEdgeStyle;rounded=0;orthogonalLoop=1;jettySize=auto;html=1;exitX=0.5;exitY=1;exitDx=0;exitDy=0;" edge="1" parent="L2NxDiEahJrNmPkSyfzn-6" source="L2NxDiEahJrNmPkSyfzn-36" target="L2NxDiEahJrNmPkSyfzn-39">
          <mxGeometry relative="1" as="geometry" />
        </mxCell>
        <mxCell id="L2NxDiEahJrNmPkSyfzn-36" value="评审确认" style="rounded=1;whiteSpace=wrap;html=1;" vertex="1" parent="L2NxDiEahJrNmPkSyfzn-6">
          <mxGeometry x="60" y="630" width="120" height="60" as="geometry" />
        </mxCell>
        <mxCell id="L2NxDiEahJrNmPkSyfzn-39" value="是否通过" style="rhombus;whiteSpace=wrap;html=1;" vertex="1" parent="L2NxDiEahJrNmPkSyfzn-6">
          <mxGeometry x="75" y="750" width="90" height="60" as="geometry" />
        </mxCell>
        <mxCell id="L2NxDiEahJrNmPkSyfzn-41" value="默认带上联合评审的结果" style="text;html=1;strokeColor=none;fillColor=none;align=center;verticalAlign=middle;whiteSpace=wrap;rounded=0;" vertex="1" parent="L2NxDiEahJrNmPkSyfzn-6">
          <mxGeometry x="140" y="710" width="60" height="30" as="geometry" />
        </mxCell>
        <mxCell id="L2NxDiEahJrNmPkSyfzn-52" style="edgeStyle=orthogonalEdgeStyle;rounded=0;orthogonalLoop=1;jettySize=auto;html=1;exitX=0.5;exitY=1;exitDx=0;exitDy=0;" edge="1" parent="L2NxDiEahJrNmPkSyfzn-6" source="L2NxDiEahJrNmPkSyfzn-48" target="L2NxDiEahJrNmPkSyfzn-51">
          <mxGeometry relative="1" as="geometry" />
        </mxCell>
        <mxCell id="L2NxDiEahJrNmPkSyfzn-48" value="项目批复" style="rounded=1;whiteSpace=wrap;html=1;" vertex="1" parent="L2NxDiEahJrNmPkSyfzn-6">
          <mxGeometry x="60" y="920" width="120" height="60" as="geometry" />
        </mxCell>
        <mxCell id="L2NxDiEahJrNmPkSyfzn-54" style="edgeStyle=orthogonalEdgeStyle;rounded=0;orthogonalLoop=1;jettySize=auto;html=1;exitX=0;exitY=0.5;exitDx=0;exitDy=0;" edge="1" parent="L2NxDiEahJrNmPkSyfzn-6" source="L2NxDiEahJrNmPkSyfzn-51">
          <mxGeometry relative="1" as="geometry">
            <mxPoint x="-60" y="1080" as="targetPoint" />
          </mxGeometry>
        </mxCell>
        <mxCell id="L2NxDiEahJrNmPkSyfzn-55" value="是" style="edgeLabel;html=1;align=center;verticalAlign=middle;resizable=0;points=[];" vertex="1" connectable="0" parent="L2NxDiEahJrNmPkSyfzn-54">
          <mxGeometry x="-0.1538" y="-1" relative="1" as="geometry">
            <mxPoint as="offset" />
          </mxGeometry>
        </mxCell>
        <mxCell id="L2NxDiEahJrNmPkSyfzn-61" style="edgeStyle=orthogonalEdgeStyle;rounded=0;orthogonalLoop=1;jettySize=auto;html=1;exitX=0.5;exitY=1;exitDx=0;exitDy=0;" edge="1" parent="L2NxDiEahJrNmPkSyfzn-6" source="L2NxDiEahJrNmPkSyfzn-51" target="L2NxDiEahJrNmPkSyfzn-56">
          <mxGeometry relative="1" as="geometry" />
        </mxCell>
        <mxCell id="L2NxDiEahJrNmPkSyfzn-51" value="是否发回建设单位上传责任书" style="rhombus;whiteSpace=wrap;html=1;" vertex="1" parent="L2NxDiEahJrNmPkSyfzn-6">
          <mxGeometry x="75" y="1050" width="90" height="60" as="geometry" />
        </mxCell>
        <mxCell id="L2NxDiEahJrNmPkSyfzn-56" value="结束" style="ellipse;whiteSpace=wrap;html=1;aspect=fixed;" vertex="1" parent="L2NxDiEahJrNmPkSyfzn-6">
          <mxGeometry x="97.5" y="1170" width="45" height="45" as="geometry" />
        </mxCell>
        <mxCell id="L2NxDiEahJrNmPkSyfzn-7" value="会审人员" style="swimlane;html=1;startSize=20;" vertex="1" parent="77e6c97f196da883-1">
          <mxGeometry x="480" y="20" width="240" height="1350" as="geometry" />
        </mxCell>
        <mxCell id="L2NxDiEahJrNmPkSyfzn-20" value="会审审批" style="rounded=1;whiteSpace=wrap;html=1;" vertex="1" parent="L2NxDiEahJrNmPkSyfzn-7">
          <mxGeometry x="60" y="320" width="120" height="60" as="geometry" />
        </mxCell>
        <mxCell id="L2NxDiEahJrNmPkSyfzn-18" style="edgeStyle=orthogonalEdgeStyle;rounded=0;orthogonalLoop=1;jettySize=auto;html=1;exitX=1;exitY=0.5;exitDx=0;exitDy=0;" edge="1" parent="77e6c97f196da883-1" source="L2NxDiEahJrNmPkSyfzn-12" target="L2NxDiEahJrNmPkSyfzn-17">
          <mxGeometry relative="1" as="geometry" />
        </mxCell>
        <mxCell id="L2NxDiEahJrNmPkSyfzn-19" value="通过" style="edgeLabel;html=1;align=center;verticalAlign=middle;resizable=0;points=[];" vertex="1" connectable="0" parent="L2NxDiEahJrNmPkSyfzn-18">
          <mxGeometry x="-0.3287" relative="1" as="geometry">
            <mxPoint as="offset" />
          </mxGeometry>
        </mxCell>
        <mxCell id="L2NxDiEahJrNmPkSyfzn-23" style="edgeStyle=orthogonalEdgeStyle;rounded=0;orthogonalLoop=1;jettySize=auto;html=1;exitX=1;exitY=0;exitDx=0;exitDy=0;entryX=0;entryY=0;entryDx=0;entryDy=0;" edge="1" parent="77e6c97f196da883-1" source="L2NxDiEahJrNmPkSyfzn-17" target="L2NxDiEahJrNmPkSyfzn-20">
          <mxGeometry relative="1" as="geometry">
            <Array as="points">
              <mxPoint x="410" y="320" />
              <mxPoint x="540" y="320" />
            </Array>
          </mxGeometry>
        </mxCell>
        <mxCell id="L2NxDiEahJrNmPkSyfzn-32" value="发起会审" style="edgeLabel;html=1;align=center;verticalAlign=middle;resizable=0;points=[];" vertex="1" connectable="0" parent="L2NxDiEahJrNmPkSyfzn-23">
          <mxGeometry x="-0.1098" relative="1" as="geometry">
            <mxPoint as="offset" />
          </mxGeometry>
        </mxCell>
        <mxCell id="L2NxDiEahJrNmPkSyfzn-25" style="edgeStyle=orthogonalEdgeStyle;rounded=0;orthogonalLoop=1;jettySize=auto;html=1;exitX=0;exitY=1;exitDx=0;exitDy=0;entryX=1;entryY=1;entryDx=0;entryDy=0;" edge="1" parent="77e6c97f196da883-1" source="L2NxDiEahJrNmPkSyfzn-20" target="L2NxDiEahJrNmPkSyfzn-17">
          <mxGeometry relative="1" as="geometry">
            <Array as="points">
              <mxPoint x="540" y="420" />
              <mxPoint x="410" y="420" />
            </Array>
          </mxGeometry>
        </mxCell>
        <mxCell id="L2NxDiEahJrNmPkSyfzn-33" value="会审结束" style="edgeLabel;html=1;align=center;verticalAlign=middle;resizable=0;points=[];" vertex="1" connectable="0" parent="L2NxDiEahJrNmPkSyfzn-25">
          <mxGeometry x="0.1098" y="2" relative="1" as="geometry">
            <mxPoint as="offset" />
          </mxGeometry>
        </mxCell>
        <mxCell id="L2NxDiEahJrNmPkSyfzn-8" value="第三方专家机构" style="swimlane;html=1;startSize=20;" vertex="1" parent="77e6c97f196da883-1">
          <mxGeometry x="720" y="20" width="240" height="1350" as="geometry" />
        </mxCell>
        <mxCell id="L2NxDiEahJrNmPkSyfzn-28" value="联合评审" style="rounded=1;whiteSpace=wrap;html=1;" vertex="1" parent="L2NxDiEahJrNmPkSyfzn-8">
          <mxGeometry x="60" y="440" width="120" height="60" as="geometry" />
        </mxCell>
        <mxCell id="L2NxDiEahJrNmPkSyfzn-42" value="需要选专家" style="text;html=1;strokeColor=none;fillColor=none;align=center;verticalAlign=middle;whiteSpace=wrap;rounded=0;" vertex="1" parent="L2NxDiEahJrNmPkSyfzn-8">
          <mxGeometry x="150" y="540" width="60" height="30" as="geometry" />
        </mxCell>
        <mxCell id="L2NxDiEahJrNmPkSyfzn-46" value="上传评审报告" style="rounded=1;whiteSpace=wrap;html=1;" vertex="1" parent="L2NxDiEahJrNmPkSyfzn-8">
          <mxGeometry x="60" y="750" width="120" height="60" as="geometry" />
        </mxCell>
        <mxCell id="L2NxDiEahJrNmPkSyfzn-29" style="edgeStyle=orthogonalEdgeStyle;rounded=0;orthogonalLoop=1;jettySize=auto;html=1;entryX=0;entryY=0.5;entryDx=0;entryDy=0;" edge="1" parent="77e6c97f196da883-1" source="L2NxDiEahJrNmPkSyfzn-26" target="L2NxDiEahJrNmPkSyfzn-9">
          <mxGeometry relative="1" as="geometry" />
        </mxCell>
        <mxCell id="L2NxDiEahJrNmPkSyfzn-30" value="驳回" style="edgeLabel;html=1;align=center;verticalAlign=middle;resizable=0;points=[];" vertex="1" connectable="0" parent="L2NxDiEahJrNmPkSyfzn-29">
          <mxGeometry x="-0.5654" y="-3" relative="1" as="geometry">
            <mxPoint as="offset" />
          </mxGeometry>
        </mxCell>
        <mxCell id="L2NxDiEahJrNmPkSyfzn-31" style="edgeStyle=orthogonalEdgeStyle;rounded=0;orthogonalLoop=1;jettySize=auto;html=1;exitX=1;exitY=0.5;exitDx=0;exitDy=0;" edge="1" parent="77e6c97f196da883-1" source="L2NxDiEahJrNmPkSyfzn-26" target="L2NxDiEahJrNmPkSyfzn-28">
          <mxGeometry relative="1" as="geometry" />
        </mxCell>
        <mxCell id="L2NxDiEahJrNmPkSyfzn-34" value="通过" style="edgeLabel;html=1;align=center;verticalAlign=middle;resizable=0;points=[];" vertex="1" connectable="0" parent="L2NxDiEahJrNmPkSyfzn-31">
          <mxGeometry x="0.0528" y="-2" relative="1" as="geometry">
            <mxPoint as="offset" />
          </mxGeometry>
        </mxCell>
        <mxCell id="L2NxDiEahJrNmPkSyfzn-37" style="edgeStyle=orthogonalEdgeStyle;rounded=0;orthogonalLoop=1;jettySize=auto;html=1;exitX=0.5;exitY=1;exitDx=0;exitDy=0;" edge="1" parent="77e6c97f196da883-1" source="L2NxDiEahJrNmPkSyfzn-28" target="L2NxDiEahJrNmPkSyfzn-36">
          <mxGeometry relative="1" as="geometry" />
        </mxCell>
        <mxCell id="L2NxDiEahJrNmPkSyfzn-38" value="如果通过，需要上传word评审报告，如果驳回，需填写意见" style="edgeLabel;html=1;align=center;verticalAlign=middle;resizable=0;points=[];" vertex="1" connectable="0" parent="L2NxDiEahJrNmPkSyfzn-37">
          <mxGeometry x="-0.0842" y="-3" relative="1" as="geometry">
            <mxPoint as="offset" />
          </mxGeometry>
        </mxCell>
        <mxCell id="L2NxDiEahJrNmPkSyfzn-44" style="edgeStyle=orthogonalEdgeStyle;rounded=0;orthogonalLoop=1;jettySize=auto;html=1;exitX=0;exitY=0.5;exitDx=0;exitDy=0;entryX=0;entryY=0.5;entryDx=0;entryDy=0;" edge="1" parent="77e6c97f196da883-1" source="L2NxDiEahJrNmPkSyfzn-39" target="L2NxDiEahJrNmPkSyfzn-9">
          <mxGeometry relative="1" as="geometry" />
        </mxCell>
        <mxCell id="L2NxDiEahJrNmPkSyfzn-45" value="驳回" style="edgeLabel;html=1;align=center;verticalAlign=middle;resizable=0;points=[];" vertex="1" connectable="0" parent="L2NxDiEahJrNmPkSyfzn-44">
          <mxGeometry x="-0.6588" y="3" relative="1" as="geometry">
            <mxPoint as="offset" />
          </mxGeometry>
        </mxCell>
        <mxCell id="L2NxDiEahJrNmPkSyfzn-47" style="edgeStyle=orthogonalEdgeStyle;rounded=0;orthogonalLoop=1;jettySize=auto;html=1;exitX=1;exitY=0.5;exitDx=0;exitDy=0;" edge="1" parent="77e6c97f196da883-1" source="L2NxDiEahJrNmPkSyfzn-39" target="L2NxDiEahJrNmPkSyfzn-46">
          <mxGeometry relative="1" as="geometry" />
        </mxCell>
        <mxCell id="L2NxDiEahJrNmPkSyfzn-50" style="edgeStyle=orthogonalEdgeStyle;rounded=0;orthogonalLoop=1;jettySize=auto;html=1;exitX=0.5;exitY=1;exitDx=0;exitDy=0;entryX=0.5;entryY=0;entryDx=0;entryDy=0;" edge="1" parent="77e6c97f196da883-1" source="L2NxDiEahJrNmPkSyfzn-46" target="L2NxDiEahJrNmPkSyfzn-48">
          <mxGeometry relative="1" as="geometry" />
        </mxCell>
        <mxCell id="L2NxDiEahJrNmPkSyfzn-60" style="edgeStyle=orthogonalEdgeStyle;rounded=0;orthogonalLoop=1;jettySize=auto;html=1;exitX=0.5;exitY=0;exitDx=0;exitDy=0;entryX=0;entryY=0.5;entryDx=0;entryDy=0;" edge="1" parent="77e6c97f196da883-1" source="L2NxDiEahJrNmPkSyfzn-53" target="L2NxDiEahJrNmPkSyfzn-48">
          <mxGeometry relative="1" as="geometry" />
        </mxCell>
      </root>
    </mxGraphModel>
  </diagram>
</mxfile>
